<?xml version="1.0" encoding="UTF-8"?>
<svg id="Layer_1" data-name="Layer 1" xmlns="http://www.w3.org/2000/svg" xmlns:xlink="http://www.w3.org/1999/xlink" viewBox="0 0 496.23 105.69">
  <defs>
    <style>
      .cls-1 {
        fill: url(#linear-gradient-2);
      }

      .cls-2 {
        fill: #69007f;
        opacity: .34;
      }

      .cls-3 {
        fill: url(#linear-gradient-6);
      }

      .cls-4 {
        fill: url(#linear-gradient-5);
      }

      .cls-5 {
        fill: url(#linear-gradient-7);
      }

      .cls-6 {
        fill: url(#linear-gradient-9);
      }

      .cls-7 {
        fill: url(#linear-gradient-3);
      }

      .cls-8 {
        fill: url(#linear-gradient);
      }

      .cls-9 {
        fill: url(#linear-gradient-4);
      }

      .cls-10 {
        fill: url(#linear-gradient-8);
      }
    </style>
    <linearGradient id="linear-gradient" x1="-241.92" y1="-1296.8" x2="-321.94" y2="-1322.67" gradientTransform="translate(-695.47 1165.28) rotate(46.73)" gradientUnits="userSpaceOnUse">
      <stop offset="0" stop-color="#fa5938"/>
      <stop offset="1" stop-color="#fadb4f"/>
    </linearGradient>
    <linearGradient id="linear-gradient-2" x1="-251.01" y1="-1280.23" x2="-288.12" y2="-1333.34" xlink:href="#linear-gradient"/>
    <linearGradient id="linear-gradient-3" x1="-217.4" y1="-1289.13" x2="-258.2" y2="-1361.13" xlink:href="#linear-gradient"/>
    <linearGradient id="linear-gradient-4" x1="172.8" y1="229.69" x2="184.2" y2="156.52" gradientTransform="translate(-8.57 -111.71) rotate(-3.95)" xlink:href="#linear-gradient"/>
    <linearGradient id="linear-gradient-5" x1="242.17" y1="240.09" x2="217.89" y2="181.61" gradientTransform="translate(-8.57 -111.71) rotate(-3.95)" xlink:href="#linear-gradient"/>
    <linearGradient id="linear-gradient-6" x1="270.8" y1="228.09" x2="281.49" y2="129.24" gradientTransform="translate(-8.57 -111.71) rotate(-3.95)" xlink:href="#linear-gradient"/>
    <linearGradient id="linear-gradient-7" x1="-154.37" y1="1161.81" x2="-165.34" y2="1091.21" gradientTransform="translate(-158.49 -964.29) rotate(-35.65)" xlink:href="#linear-gradient"/>
    <linearGradient id="linear-gradient-8" x1="-213.22" y1="1188.94" x2="-145.06" y2="1161.68" gradientTransform="translate(-158.49 -964.29) rotate(-35.65)" xlink:href="#linear-gradient"/>
    <linearGradient id="linear-gradient-9" x1="-136.13" y1="1225.22" x2="-83.83" y2="1167.11" gradientTransform="translate(-158.49 -964.29) rotate(-35.65)" xlink:href="#linear-gradient"/>
  </defs>
  <g>
    <path class="cls-2" d="m52.81,31.55c11.94,61.32,12.54,61.23,10.89,61.67-21.29,5.68-17.59,5.98-29.3-56.76-20.85,5.56-17.64,7.35-19.74-2.66-.98-5.25,1.13-8.23,5.11-9.29,48.44-12.92,47.57-12.88,48.53-12.6.9.26.79.76,2.08,7.38,1.73,8.82-4.25,8.72-17.57,12.28Z"/>
    <path class="cls-8" d="m56.13,27.23c11.94,61.32,12.54,61.23,10.89,61.67-21.29,5.68-17.59,5.98-29.3-56.76-20.85,5.56-17.64,7.35-19.74-2.66-.98-5.25,1.13-8.23,5.11-9.29,48.44-12.92,47.57-12.88,48.53-12.6.9.26.79.76,2.08,7.38,1.73,8.82-4.25,8.72-17.57,12.28Z"/>
    <path class="cls-2" d="m67.32,88.57c-15.44-1.6-3.31-15.95.79-55.58.16-1.57,1.38-1.06,5.75-.61,5.64.58,7.96,2.8,7.32,9.01-.17,1.67-7.79,45.43-8.11,46.58-.35,1.51-.65,1.13-5.75.61Z"/>
    <path class="cls-1" d="m71.18,85.88c-15.44-1.6-3.31-15.95.79-55.58.16-1.57,1.38-1.06,5.75-.61,5.64.58,7.96,2.8,7.32,9.01-.17,1.67-7.79,45.43-8.11,46.58-.35,1.51-.65,1.13-5.75.61Z"/>
    <path class="cls-2" d="m104.08,82.57c10.63,3.8,15.83-2.63,20.03-1.13,3.92,1.4-3.41,12.16-6.6,14.19-13.91,8.88-54.48-3.7-34.42-45.66,18.24-38.16,58.49-20.96,59.31-2.97.26,5.67-2.37,12.78-7.75,14.58-5.19,1.74-12.75-1.1-13.48-2.05-1.14-1.46,4.63-10.45,1.56-14.19-12.15-14.78-40.27,29.5-18.64,37.22Z"/>
    <path class="cls-7" d="m108.66,81.83c10.63,3.8,15.83-2.63,20.03-1.13,3.92,1.4-3.41,12.16-6.6,14.19-13.91,8.88-54.48-3.7-34.42-45.66,18.24-38.16,58.49-20.96,59.31-2.97.26,5.67-2.37,12.78-7.75,14.58-5.19,1.74-12.75-1.1-13.48-2.05-1.14-1.46,4.63-10.45,1.56-14.19-12.15-14.78-40.27,29.5-18.64,37.22Z"/>
  </g>
  <g>
    <path class="cls-2" d="m193.73,32.95c14.84,64.03,15.49,63.99,13.77,64.51-22.36,6.82-18.33,6.81-32.96-58.66-21.74,6.63-18.29,8.39-20.88-2.07-1.09-4.87.33-8.54,5.03-9.97,50.51-15.41,49.59-15.33,50.61-15.08.97.24.87.81,2.47,7.69,2.14,9.19-4.07,9.32-18.04,13.58Z"/>
    <path class="cls-9" d="m196.55,27.94c14.84,64.03,15.49,63.99,13.77,64.51-22.36,6.82-18.33,6.81-32.96-58.66-21.74,6.63-18.29,8.39-20.88-2.07-1.09-4.87.33-8.54,5.03-9.97,50.51-15.41,49.59-15.33,50.61-15.08.97.24.87.81,2.47,7.69,2.14,9.19-4.07,9.32-18.04,13.58Z"/>
    <path class="cls-2" d="m229.83,30.93c5.37-.41,7.55,3.69,9.2,8.86,16.57,50.33,17.13,50.27,13.08,50.58-11.81.9-14.7.77-17.1-11.95l-14.9,1.14c-2.02,12.65-1.57,13.38-3.79,13.55-4.42.34-9.27,1.26-12.13-2.13-4.19-4.96,13.36-58.06,15.43-59.04.72-.34,1.81-.35,10.21-.99Zm-7.59,35.97l9.85-.75-5.32-22.33-4.52,23.08Z"/>
    <path class="cls-4" d="m234.05,29.44c5.37-.41,7.55,3.69,9.2,8.86,16.57,50.33,17.13,50.27,13.08,50.58-11.81.9-14.7.77-17.1-11.95l-14.9,1.14c-2.02,12.65-1.57,13.38-3.79,13.55-4.42.34-9.27,1.26-12.13-2.13-4.19-4.96,13.36-58.06,15.43-59.04.72-.34,1.81-.35,10.21-.99Zm-7.59,35.97l9.85-.75-5.32-22.33-4.52,23.08Z"/>
    <path class="cls-2" d="m274.89,67.58c11.88,1.49,15.63-6.34,20.38-5.74,4.35.54-.73,13.3-3.56,16.13-11.03,11.06-57.43,10.6-45.9-39.17,10.09-43.57,55.49-34.87,60.43-16.62,1.56,5.76.49,13.7-4.65,16.8-4.95,2.98-13.38,1.78-14.36.97-1.59-1.31,2.45-11.77-1.63-14.98-15.91-12.45-34.74,39.6-10.7,42.61Z"/>
    <path class="cls-3" d="m279.05,65.57c11.88,1.49,15.63-6.34,20.38-5.74,4.35.54-.73,13.3-3.56,16.13-11.03,11.06-57.43,10.6-45.9-39.17,10.09-43.57,55.49-34.87,60.43-16.62,1.56,5.76.49,13.7-4.65,16.8-4.95,2.98-13.38,1.78-14.36.97-1.59-1.31,2.45-11.77-1.63-14.98-15.91-12.45-34.74,39.6-10.7,42.61Z"/>
  </g>
  <g>
    <path class="cls-2" d="m363.17,31.88c18.41,63.37,19.05,63.25,17.36,63.87-22.02,8.06-17.99,7.83-36.26-56.95-21.42,7.84-17.87,9.42-21.03-.92-1.54-5.44.4-8.77,4.49-10.27,49.75-18.22,48.84-18.09,49.87-17.9.98.19.91.74,2.89,7.57,2.67,9.14-3.71,9.61-17.32,14.6Z"/>
    <path class="cls-5" d="m365.53,27.3c18.41,63.37,19.05,63.25,17.36,63.87-22.02,8.06-17.99,7.83-36.26-56.95-21.42,7.84-17.87,9.42-21.03-.92-1.54-5.44.4-8.77,4.49-10.27,49.75-18.22,48.84-18.09,49.87-17.9.98.19.91.74,2.89,7.57,2.67,9.14-3.71,9.61-17.32,14.6Z"/>
    <path class="cls-2" d="m399.57,34.01c31.07-1.97,26.48,40.35,14.8,51.76-8.93,8.72-27.82,10.3-36.01.87-8.68-9.97-12.97-50.47,21.21-52.63Zm-.89,12.51c-6.96.44-10.05,5.64-11.1,12.47-1.39,9.1.04,21.97,9.95,21.34,13.11-.83,15.31-34.71,1.15-33.81Z"/>
    <path class="cls-10" d="m403.96,32.74c31.07-1.97,26.48,40.35,14.8,51.76-8.93,8.72-27.82,10.3-36.01.87-8.68-9.97-12.97-50.47,21.21-52.63Zm-.89,12.51c-6.96.44-10.05,5.64-11.1,12.47-1.39,9.1.04,21.97,9.95,21.34,13.11-.83,15.31-34.71,1.15-33.81Z"/>
    <path class="cls-2" d="m422.56,92.19c-18.78-6.52.54-20.84,17.28-69.09.78-2.25.47-1.46,35.99,10.87.88.31,1.41.93,1.07,1.89-5.76,13.55-4.59,12.02-25.24,4.85l-5.68,13.26c14.26,4.95,15.41,4.79,14.77,6.64-5.55,13.07-5.28,11.78-20.32,6.56l-6.05,14c21.92,7.61,22.94,7.35,22.29,9.25-6.05,14.25-3.71,12.32-34.11,1.77Z"/>
    <path class="cls-6" d="m427.37,92.02c-18.78-6.52.54-20.84,17.28-69.09.78-2.25.47-1.46,35.99,10.87.88.31,1.41.93,1.07,1.89-5.76,13.55-4.59,12.02-25.24,4.85l-5.68,13.26c14.26,4.95,15.41,4.79,14.77,6.64-5.55,13.07-5.28,11.78-20.32,6.56l-6.05,14c21.92,7.61,22.94,7.35,22.29,9.25-6.05,14.25-3.71,12.32-34.11,1.77Z"/>
  </g>
</svg>